<!-- icon666.com - MILLIONS vector ICONS FREE --><svg id="svg8" viewBox="0 0 110.99999 111" xmlns="http://www.w3.org/2000/svg" xmlns:svg="http://www.w3.org/2000/svg"><g id="layer1"><g id="g1825" fill="#393e46" transform="matrix(.917 0 0 .917 368.822 355.092)"><path id="path1122" d="m-341.54883-387.08203c-33.354 0-60.5 27.14599-60.5 60.5 0 33.354 27.146 60.5 60.5 60.5 33.18983 0 60.2092-26.88516 60.47461-60.01367a5 5 0 0 0 .0254-.48633 5 5 0 0 0 -.0254-.49805c-.27174-33.12309-27.28872-60.00195-60.47461-60.00195zm0 10c27.9496 0 50.5 22.5504 50.5 50.5s-22.5504 50.5-50.5 50.5-50.5-22.5504-50.5-50.5 22.5504-50.5 50.5-50.5z" opacity=".998" font-variant-ligatures="normal" font-variant-position="normal" font-variant-caps="normal" font-variant-numeric="normal" font-variant-alternates="normal" font-variant-east-asian="normal" font-feature-settings="normal" font-variation-settings="normal" text-indent="0" text-align="start" text-decoration-line="none" text-decoration-style="solid" text-decoration-color="#000000" text-transform="none" text-orientation="mixed" white-space="normal" shape-padding="0" shape-margin="0" inline-size="0" isolation="auto" mix-blend-mode="normal" solid-color="#000000" solid-opacity="1" vector-effect="none" fill="#393e46" style="fill: rgb(0, 0, 0);"></path><path id="path1294" d="m-369.29883-331.58203a5 5 0 0 0 -5 5 5 5 0 0 0 5 5h55.5a5 5 0 0 0 5-5 5 5 0 0 0 -5-5z" font-variant-ligatures="normal" font-variant-position="normal" font-variant-caps="normal" font-variant-numeric="normal" font-variant-alternates="normal" font-variant-east-asian="normal" font-feature-settings="normal" font-variation-settings="normal" text-indent="0" text-align="start" text-decoration-line="none" text-decoration-style="solid" text-decoration-color="#000000" text-transform="none" text-orientation="mixed" white-space="normal" shape-padding="0" shape-margin="0" inline-size="0" isolation="auto" mix-blend-mode="normal" solid-color="#000000" solid-opacity="1" vector-effect="none" fill="#393e46" style="fill: rgb(0, 0, 0);"></path></g></g></svg>